<svg xmlns="http://www.w3.org/2000/svg" viewBox="0 0 841.9 595.3">
<g transform="translate(0.000000,300.000000) scale(0.100000,-0.100000)"
fill="#ffa500" stroke="none">
<path d="M1300 2935 c-4 -5 -117 -199 -250 -430 -134 -231 -301 -521 -373
-645 -71 -124 -196 -340 -277 -480 -81 -141 -169 -291 -194 -334 -26 -44 -45
-84 -42 -90 3 -6 56 -99 119 -206 l113 -195 1145 -2 1144 -3 118 204 c64 112
117 206 117 210 0 5 -401 703 -805 1401 -54 94 -151 261 -215 373 l-117 203
-237 2 c-149 1 -241 -2 -246 -8z m275 -337 c99 -171 193 -335 209 -362 24 -43
355 -616 419 -726 99 -170 117 -202 117 -208 0 -4 -229 -7 -509 -7 l-508 0 10
23 10 22 465 0 464 0 -22 38 c-13 20 -64 109 -115 197 -75 131 -479 831 -712
1232 -29 51 -53 95 -53 98 0 3 10 5 23 5 18 0 50 -50 202 -312z m168 -165
c151 -263 339 -588 417 -723 252 -435 270 -466 270 -473 0 -4 -261 -7 -580 -7
-319 0 -580 3 -580 6 0 3 5 14 10 25 10 18 27 19 545 19 l534 0 -46 78 c-44
74 -163 280 -494 855 -84 144 -207 358 -275 474 -68 117 -124 215 -124 218 0
3 11 5 24 5 20 0 58 -60 299 -477z m-184 450 c11 -25 266 -470 417 -728 169
-290 564 -976 564 -980 0 -3 -295 -5 -655 -5 l-655 0 11 23 10 22 604 -3 c382
-2 605 1 605 7 0 10 -67 127 -463 811 -132 228 -296 512 -364 630 -69 118
-129 219 -134 225 -16 16 -10 25 19 25 22 0 32 -7 41 -27z m311 -416 c512
-891 762 -1322 771 -1331 5 -6 9 -14 9 -18 0 -4 -326 -8 -725 -8 -399 0 -725
3 -725 8 1 32 9 33 693 32 372 0 677 2 677 6 0 9 -16 37 -115 209 -51 88 -183
315 -292 505 -110 190 -253 437 -318 550 -66 113 -149 257 -185 320 -36 63
-74 127 -84 143 l-18 27 28 0 c27 -1 42 -24 284 -443z m-147 381 c33 -60 85
-149 437 -758 84 -146 185 -321 225 -390 39 -69 138 -239 219 -378 80 -139
147 -257 149 -262 1 -6 -296 -11 -796 -12 -438 -2 -797 -2 -797 0 0 2 5 12 10
23 10 19 29 19 760 19 413 0 750 2 750 5 0 5 -59 108 -245 430 -32 55 -150
260 -263 455 -113 195 -239 414 -280 485 -41 72 -115 198 -163 282 -49 83 -89
154 -89 157 0 3 11 6 24 6 19 0 31 -13 59 -62z m232 -280 c109 -189 256 -443
327 -565 341 -591 398 -690 489 -846 55 -93 99 -171 99 -173 0 -2 -394 -4
-875 -4 l-875 0 12 25 11 25 824 0 c452 0 823 2 823 3 0 2 -131 231 -291 508
-160 277 -393 680 -517 894 -124 215 -236 407 -249 427 -29 46 -29 48 1 48 20
0 49 -46 221 -342z m-413 -73 c124 -214 317 -547 428 -740 111 -192 206 -354
211 -359 15 -17 10 -26 -15 -26 -21 0 -64 69 -367 593 -188 325 -374 647 -414
715 l-72 123 -46 -78 c-102 -176 -459 -793 -580 -1003 -71 -124 -179 -310
-240 -415 -61 -104 -135 -234 -165 -289 -53 -94 -56 -97 -68 -75 -10 20 -10
29 6 54 10 17 94 163 188 325 93 162 310 538 482 835 172 297 337 584 368 638
30 54 56 96 57 95 1 -2 103 -178 227 -393z m38 -190 c140 -242 316 -547 392
-679 76 -131 138 -243 138 -248 0 -5 -10 -8 -22 -6 -17 2 -60 69 -195 303 -95
165 -201 350 -236 410 -35 61 -126 217 -202 349 -123 212 -140 237 -151 221
-13 -18 -188 -320 -679 -1170 -404 -700 -362 -633 -375 -604 -11 24 13 68 300
565 172 296 396 685 500 864 266 460 261 453 269 443 5 -4 122 -206 261 -448z
m-78 10 c364 -629 529 -917 535 -931 3 -10 -2 -14 -18 -14 -21 1 -44 36 -163
243 -77 133 -206 357 -287 497 -80 140 -171 297 -201 349 l-56 93 -14 -28 c-9
-16 -57 -101 -108 -189 -206 -355 -750 -1298 -816 -1412 -38 -67 -71 -123 -74
-123 -3 0 -11 9 -17 20 -11 17 -7 28 26 82 21 35 125 214 231 398 107 184 291
504 410 710 119 206 249 432 290 503 40 70 74 126 75 125 1 -2 85 -147 187
-323z m78 -260 c139 -242 284 -493 322 -558 38 -65 67 -121 64 -124 -11 -12
-53 8 -63 29 -9 20 -199 350 -501 871 -47 81 -89 144 -93 140 -4 -4 -141 -240
-304 -523 -164 -283 -337 -582 -384 -665 -48 -82 -132 -228 -186 -323 -97
-170 -99 -172 -113 -147 -12 24 -11 30 16 73 27 42 231 395 552 952 59 102
151 262 205 355 54 94 125 216 158 273 33 57 63 100 67 95 4 -4 121 -206 260
-448z m-240 288 c48 -81 186 -319 429 -743 62 -107 117 -199 122 -205 16 -16
10 -26 -17 -23 -22 3 -58 60 -287 456 -144 249 -266 453 -272 453 -9 0 -93
-140 -373 -626 -63 -110 -129 -225 -147 -255 -17 -30 -84 -145 -147 -255 -302
-523 -276 -481 -288 -453 -11 23 14 70 318 594 181 313 382 661 447 774 134
235 185 320 190 320 2 0 13 -17 25 -37z m51 -213 c40 -69 96 -165 124 -215 28
-49 109 -188 178 -308 70 -120 127 -222 127 -228 0 -6 -9 -9 -21 -7 -21 3 -46
44 -347 568 -74 129 -136 236 -137 238 -2 2 -9 -9 -17 -25 -13 -25 -181 -318
-358 -623 -116 -200 -470 -812 -507 -878 -24 -42 -26 -43 -39 -24 -12 18 18
74 347 643 199 343 409 706 467 807 58 100 106 181 108 180 1 -2 35 -59 75
-128z m-61 -50 c9 -17 -1 -41 -64 -147 -63 -110 -216 -375 -524 -908 -172
-298 -222 -386 -222 -390 0 -3 488 -4 1085 -3 597 2 1085 2 1085 0 0 -2 -5
-12 -10 -23 -10 -19 -34 -19 -1125 -19 -613 0 -1115 2 -1115 4 0 3 17 33 38
68 22 35 65 108 97 163 31 55 74 129 95 165 21 36 138 238 260 450 123 212
258 447 302 523 44 75 81 137 83 137 3 0 9 -9 15 -20z m38 -64 c6 -13 7 -27 2
-32 -21 -23 -739 -1278 -734 -1285 3 -5 475 -8 1049 -6 1042 2 1044 2 1031
-18 -13 -20 -26 -20 -1090 -23 -592 -1 -1076 0 -1076 2 0 2 35 64 78 137 44
74 141 242 217 374 76 132 161 281 190 330 132 225 278 480 293 511 19 40 25
42 40 10z m42 -79 c0 -4 -42 -81 -94 -170 -426 -733 -576 -995 -576 -1001 0
-3 455 -6 1010 -6 556 0 1010 -3 1010 -6 0 -3 -5 -14 -10 -25 -10 -19 -33 -19
-1050 -19 -572 0 -1040 3 -1040 6 0 5 75 135 459 799 48 83 127 221 177 307
77 135 91 154 102 140 6 -8 12 -20 12 -25z m30 -46 c8 -16 -2 -40 -56 -133
-37 -62 -83 -142 -104 -178 -21 -36 -63 -108 -93 -160 -202 -347 -337 -584
-337 -592 0 -4 435 -8 968 -8 532 0 971 0 975 0 5 0 2 -9 -6 -20 -14 -20 -22
-20 -1012 -20 -549 0 -1000 2 -1002 4 -2 2 20 43 49 92 74 126 336 581 475
826 65 114 121 207 125 207 4 1 12 -8 18 -18z m37 -64 c8 -17 7 -28 -4 -42 -8
-11 -58 -96 -112 -190 -346 -598 -401 -695 -401 -705 0 -7 282 -10 935 -8 648
2 935 0 935 -7 0 -35 -10 -35 -988 -35 -767 0 -963 3 -959 13 3 6 64 113 136
237 71 124 199 345 283 492 84 147 156 267 159 268 3 0 10 -10 16 -23z m43
-79 c0 -5 -11 -26 -24 -47 -27 -41 -436 -750 -436 -754 0 -1 407 -1 905 1 498
1 905 -1 905 -5 0 -5 -7 -16 -14 -25 -12 -17 -69 -18 -941 -18 -849 0 -927 1
-921 16 6 16 80 146 252 444 50 85 126 217 170 292 69 120 81 136 92 121 6 -9
12 -21 12 -25z m210 -367 c0 -3 -85 -6 -190 -6 -104 0 -190 1 -190 3 0 2 24
44 54 95 29 51 72 125 95 165 l43 73 94 -162 c52 -89 94 -165 94 -168z"/>
</g>
</svg>
