<svg version="1.0" xmlns="http://www.w3.org/2000/svg"
 width="300.000000pt" height="300.000000pt" viewBox="0 0 300.000000 300.000000"
 preserveAspectRatio="xMidYMid meet">

<g transform="translate(0.000000,300.000000) scale(0.100000,-0.100000)"
fill="#ffa500" stroke="none">
<path d="M1300 2935 c-4 -5 -117 -199 -250 -430 -134 -231 -301 -521 -373
-645 -71 -124 -196 -340 -277 -480 -81 -141 -169 -291 -194 -334 -26 -44 -45
-84 -42 -90 3 -6 56 -99 119 -206 l113 -195 1145 -2 1144 -3 118 204 c64 112
117 206 117 210 0 5 -401 703 -805 1401 -54 94 -151 261 -215 373 l-117 203
-237 2 c-149 1 -241 -2 -246 -8z m275 -337 c99 -171 193 -335 209 -362 24 -43
355 -616 419 -726 99 -170 117 -202 117 -208 0 -4 -229 -7 -509 -7 l-508 0 10
23 10 22 465 0 464 0 -22 38 c-13 20 -64 109 -115 197 -75 131 -479 831 -712
1232 -29 51 -53 95 -53 98 0 3 10 5 23 5 18 0 50 -50 202 -312z m168 -165
c151 -263 339 -588 417 -723 252 -435 270 -466 270 -473 0 -4 -261 -7 -580 -7
-319 0 -580 3 -580 6 0 3 5 14 10 25 10 18 27 19 545 19 l534 0 -46 78 c-44
74 -163 280 -494 855 -84 144 -207 358 -275 474 -68 117 -124 215 -124 218 0
3 11 5 24 5 20 0 58 -60 299 -477z m-184 450 c11 -25 266 -470 417 -728 169
-290 564 -976 564 -980 0 -3 -295 -5 -655 -5 l-655 0 11 23 10 22 604 -3 c382
-2 605 1 605 7 0 10 -67 127 -463 811 -132 228 -296 512 -364 630 -69 118
-129 219 -134 225 -16 16 -10 25 19 25 22 0 32 -7 41 -27z m311 -416 c512
-891 762 -1322 771 -1331 5 -6 9 -14 9 -18 0 -4 -326 -8 -725 -8 -399 0 -725
3 -725 8 1 32 9 33 693 32 372 0 677 2 677 6 0 9 -16 37 -115 209 -51 88 -183
315 -292 505 -110 190 -253 437 -318 550 -66 113 -149 257 -185 320 -36 63
-74 127 -84 143 l-18 27 28 0 c27 -1 42 -24 284 -443z m-147 381 c33 -60 85
-149 437 -758 84 -146 185 -321 225 -390 39 -69 138 -239 219 -378 80 -139
147 -257 149 -262 1 -6 -296 -11 -796 -12 -438 -2 -797 -2 -797 0 0 2 5 12 10
23 10 19 29 19 760 19 413 0 750 2 750 5 0 5 -59 108 -245 430 -32 55 -150
260 -263 455 -113 195 -239 414 -280 485 -41 72 -115 198 -163 282 -49 83 -89
154 -89 157 0 3 11 6 24 6 19 0 31 -13 59 -62z m232 -280 c109 -189 256 -443
327 -565 341 -591 398 -690 489 -846 55 -93 99 -171 99 -173 0 -2 -394 -4
-875 -4 l-875 0 12 25 11 25 824 0 c452 0 823 2 823 3 0 2 -131 231 -291 508
-160 277 -393 680 -517 894 -124 215 -236 407 -249 427 -29 46 -29 48 1 48 20
0 49 -46 221 -342z m-413 -73 c124 -214 317 -547 428 -740 111 -192 206 -354
211 -359 15 -17 10 -26 -15 -26 -21 0 -64 69 -367 593 -188 325 -374 647 -414
715 l-72 123 -46 -78 c-102 -176 -459 -793 -580 -1003 -71 -124 -179 -310
-240 -415 -61 -104 -135 -234 -165 -289 -53 -94 -56 -97 -68 -75 -10 20 -10
29 6 54 10 17 94 163 188 325 93 162 310 538 482 835 172 297 337 584 368 638
30 54 56 96 57 95 1 -2 103 -178 227 -393z m38 -190 c140 -242 316 -547 392
-679 76 -131 138 -243 138 -248 0 -5 -10 -8 -22 -6 -17 2 -60 69 -195 303 -95
165 -201 350 -236 410 -35 61 -126 217 -202 349 -123 212 -140 237 -151 221
-13 -18 -188 -320 -679 -1170 -404 -700 -362 -633 -375 -604 -11 24 13 68 300
565 172 296 396 685 500 864 266 460 261 453 269 443 5 -4 122 -206 261 -448z
m-78 10 c364 -629 529 -917 535 -931 3 -10 -2 -14 -18 -14 -21 1 -44 36 -163
243 -77 133 -206 357 -287 497 -80 140 -171 297 -201 349 l-56 93 -14 -28 c-9
-16 -57 -101 -108 -189 -206 -355 -750 -1298 -816 -1412 -38 -67 -71 -123 -74
-123 -3 0 -11 9 -17 20 -11 17 -7 28 26 82 21 35 125 214 231 398 107 184 291
504 410 710 119 206 249 432 290 503 40 70 74 126 75 125 1 -2 85 -147 187
-323z m78 -260 c139 -242 284 -493 322 -558 38 -65 67 -121 64 -124 -11 -12
-53 8 -63 29 -9 20 -199 350 -501 871 -47 81 -89 144 -93 140 -4 -4 -141 -240
-304 -523 -164 -283 -337 -582 -384 -665 -48 -82 -132 -228 -186 -323 -97
-170 -99 -172 -113 -147 -12 24 -11 30 16 73 27 42 231 395 552 952 59 102
151 262 205 355 54 94 125 216 158 273 33 57 63 100 67 95 4 -4 121 -206 260
-448z m-240 288 c48 -81 186 -319 429 -743 62 -107 117 -199 122 -205 16 -16
10 -26 -17 -23 -22 3 -58 60 -287 456 -144 249 -266 453 -272 453 -9 0 -93
-140 -373 -626 -63 -110 -129 -225 -147 -255 -17 -30 -84 -145 -147 -255 -302
-523 -276 -481 -288 -453 -11 23 14 70 318 594 181 313 382 661 447 774 134
235 185 320 190 320 2 0 13 -17 25 -37z m51 -213 c40 -69 96 -165 124 -215 28
-49 109 -188 178 -308 70 -120 127 -222 127 -228 0 -6 -9 -9 -21 -7 -21 3 -46
44 -347 568 -74 129 -136 236 -137 238 -2 2 -9 -9 -17 -25 -13 -25 -181 -318
-358 -623 -116 -200 -470 -812 -507 -878 -24 -42 -26 -43 -39 -24 -12 18 18
74 347 643 199 343 409 706 467 807 58 100 106 181 108 180 1 -2 35 -59 75
-128z m-61 -50 c9 -17 -1 -41 -64 -147 -63 -110 -216 -375 -524 -908 -172
-298 -222 -386 -222 -390 0 -3 488 -4 1085 -3 597 2 1085 2 1085 0 0 -2 -5
-12 -10 -23 -10 -19 -34 -19 -1125 -19 -613 0 -1115 2 -1115 4 0 3 17 33 38
68 22 35 65 108 97 163 31 55 74 129 95 165 21 36 138 238 260 450 123 212
258 447 302 523 44 75 81 137 83 137 3 0 9 -9 15 -20z m38 -64 c6 -13 7 -27 2
-32 -21 -23 -739 -1278 -734 -1285 3 -5 475 -8 1049 -6 1042 2 1044 2 1031
-18 -13 -20 -26 -20 -1090 -23 -592 -1 -1076 0 -1076 2 0 2 35 64 78 137 44
74 141 242 217 374 76 132 161 281 190 330 132 225 278 480 293 511 19 40 25
42 40 10z m42 -79 c0 -4 -42 -81 -94 -170 -426 -733 -576 -995 -576 -1001 0
-3 455 -6 1010 -6 556 0 1010 -3 1010 -6 0 -3 -5 -14 -10 -25 -10 -19 -33 -19
-1050 -19 -572 0 -1040 3 -1040 6 0 5 75 135 459 799 48 83 127 221 177 307
77 135 91 154 102 140 6 -8 12 -20 12 -25z m30 -46 c8 -16 -2 -40 -56 -133
-37 -62 -83 -142 -104 -178 -21 -36 -63 -108 -93 -160 -202 -347 -337 -584
-337 -592 0 -4 435 -8 968 -8 532 0 971 0 975 0 5 0 2 -9 -6 -20 -14 -20 -22
-20 -1012 -20 -549 0 -1000 2 -1002 4 -2 2 20 43 49 92 74 126 336 581 475
826 65 114 121 207 125 207 4 1 12 -8 18 -18z m37 -64 c8 -17 7 -28 -4 -42 -8
-11 -58 -96 -112 -190 -346 -598 -401 -695 -401 -705 0 -7 282 -10 935 -8 648
2 935 0 935 -7 0 -35 -10 -35 -988 -35 -767 0 -963 3 -959 13 3 6 64 113 136
237 71 124 199 345 283 492 84 147 156 267 159 268 3 0 10 -10 16 -23z m43
-79 c0 -5 -11 -26 -24 -47 -27 -41 -436 -750 -436 -754 0 -1 407 -1 905 1 498
1 905 -1 905 -5 0 -5 -7 -16 -14 -25 -12 -17 -69 -18 -941 -18 -849 0 -927 1
-921 16 6 16 80 146 252 444 50 85 126 217 170 292 69 120 81 136 92 121 6 -9
12 -21 12 -25z m210 -367 c0 -3 -85 -6 -190 -6 -104 0 -190 1 -190 3 0 2 24
44 54 95 29 51 72 125 95 165 l43 73 94 -162 c52 -89 94 -165 94 -168z"/>
<path d="M178 252 c-28 -3 -28 -4 -28 -83 0 -78 0 -79 25 -79 20 0 25 5 25 25
0 20 5 25 24 25 44 0 71 50 48 88 -11 16 -59 29 -94 24z m59 -48 c7 -20 -11
-38 -31 -31 -9 4 -12 13 -9 26 6 25 31 28 40 5z"/>
<path d="M760 251 c-24 -6 -25 -11 -28 -84 l-3 -77 27 0 c23 0 25 3 20 24 -9
37 11 41 29 6 9 -16 24 -30 34 -30 29 0 33 12 11 35 -18 20 -19 23 -5 35 27
23 9 90 -25 90 -5 0 -14 2 -22 4 -7 2 -24 1 -38 -3z m58 -52 c3 -17 -23 -33
-39 -23 -5 3 -9 14 -9 25 0 15 6 20 22 17 13 -2 24 -10 26 -19z"/>
<path d="M1000 247 c-18 -9 -25 -21 -25 -42 0 -25 7 -33 38 -48 46 -21 40 -42
-10 -32 -30 5 -34 4 -31 -12 5 -27 49 -38 84 -22 22 11 29 21 29 44 0 25 -7
33 -38 48 -43 20 -40 42 4 33 24 -5 29 -2 29 14 0 11 -6 20 -14 20 -8 0 -20 2
-28 5 -7 3 -24 -1 -38 -8z"/>
<path d="M1428 252 c-28 -3 -28 -4 -28 -82 l0 -79 34 -7 c68 -12 127 49 80 83
-10 7 -13 13 -7 13 16 0 24 29 13 50 -10 19 -46 27 -92 22z m55 -39 c9 -9 -12
-33 -29 -33 -8 0 -14 9 -14 20 0 19 28 28 43 13z m2 -73 c0 -8 -10 -16 -22
-18 -18 -3 -23 2 -23 18 0 16 5 21 23 18 12 -2 22 -10 22 -18z"/>
<path d="M2482 250 c-28 -12 -53 -68 -45 -101 25 -102 163 -80 163 26 0 52
-68 95 -118 75z m63 -80 c0 -35 -4 -45 -18 -48 -26 -5 -47 16 -47 47 0 33 18
53 45 49 17 -3 20 -11 20 -48z"/>
<path d="M2830 251 c-24 -6 -25 -11 -28 -84 l-3 -77 27 0 c23 0 26 3 22 25 -7
33 14 33 32 0 13 -24 39 -33 53 -18 4 3 -2 16 -13 28 -18 20 -19 23 -5 35 18
15 20 50 3 72 -16 19 -55 28 -88 19z m58 -54 c4 -20 -25 -34 -40 -19 -15 15
-1 44 19 40 10 -2 19 -11 21 -21z"/>
<path d="M295 240 c-9 -15 4 -31 23 -28 14 3 18 -8 20 -60 3 -54 6 -62 22 -62
18 0 20 7 20 59 0 54 2 60 22 63 13 2 24 11 26 21 3 15 -5 17 -62 17 -36 0
-68 -4 -71 -10z"/>
<path d="M581 188 c-25 -74 -26 -94 -5 -102 11 -4 18 1 21 14 6 24 63 29 63 6
0 -17 30 -30 42 -18 7 7 -22 127 -37 152 -3 5 -19 10 -35 10 -26 0 -30 -5 -49
-62z m69 -20 c0 -10 -6 -18 -14 -18 -21 0 -25 11 -14 40 7 20 11 22 18 10 5
-8 10 -23 10 -32z"/>
<path d="M890 170 c0 -79 0 -80 25 -80 25 0 25 1 25 80 0 79 0 80 -25 80 -25
0 -25 -1 -25 -80z"/>
<path d="M1110 229 c0 -16 5 -20 20 -16 18 5 20 0 20 -59 0 -62 1 -64 26 -64
26 0 26 1 23 62 -4 57 -2 63 16 63 11 0 21 8 23 18 3 15 -5 17 -62 17 -61 0
-66 -2 -66 -21z"/>
<path d="M1262 170 c-3 -80 -3 -80 23 -80 25 0 25 1 25 80 0 77 -1 80 -23 80
-22 0 -23 -4 -25 -80z"/>
<path d="M1560 191 c0 -77 5 -88 47 -102 31 -10 39 -9 62 8 23 18 26 28 29 87
3 64 2 66 -22 66 -22 0 -24 -3 -19 -39 8 -55 -3 -91 -27 -91 -21 0 -32 26 -30
73 3 51 1 57 -20 57 -18 0 -20 -7 -20 -59z"/>
<path d="M1765 238 c-9 -29 -45 -141 -45 -143 0 -2 9 -5 21 -8 15 -4 23 0 26
13 7 26 54 33 60 10 6 -21 25 -31 40 -22 7 5 3 33 -11 82 -21 72 -23 75 -54
78 -20 2 -34 -2 -37 -10z m49 -50 c9 -35 8 -38 -14 -38 -11 0 -20 3 -20 8 0
19 13 52 20 52 4 0 10 -10 14 -22z"/>
<path d="M1900 170 c0 -76 1 -80 23 -80 20 0 22 4 20 52 l-3 53 25 -53 c20
-42 29 -52 50 -52 25 0 25 1 25 80 0 75 -1 80 -21 80 -20 0 -21 -4 -16 -50 3
-27 3 -50 -1 -50 -4 0 -17 23 -29 50 -18 41 -26 50 -47 50 -26 0 -26 -1 -26
-80z"/>
<path d="M2091 179 c-22 -69 -22 -99 -2 -99 6 0 15 9 21 20 14 27 47 25 70 -2
14 -18 21 -20 30 -11 9 8 7 28 -11 85 -23 69 -26 73 -55 76 -31 3 -32 2 -53
-69z m69 -11 c0 -10 -7 -18 -15 -18 -15 0 -21 40 -8 53 9 9 23 -13 23 -35z"/>
<path d="M2285 240 c-9 -15 4 -30 26 -30 17 0 19 -7 19 -60 0 -56 2 -60 23
-60 20 0 22 4 22 62 0 56 2 63 20 63 11 0 21 8 23 18 3 15 -5 17 -62 17 -36 0
-68 -4 -71 -10z"/>
<path d="M2630 187 c0 -79 14 -101 65 -101 54 0 75 29 75 105 0 56 -1 59 -25
59 -23 0 -24 -4 -27 -62 -3 -55 -5 -63 -23 -63 -18 0 -20 8 -23 63 -3 54 -6
62 -22 62 -18 0 -20 -7 -20 -63z"/>
<path d="M452 131 c-20 -12 -10 -46 13 -46 14 0 20 7 20 24 0 27 -13 35 -33
22z"/>
</g>
</svg>
